:SAMPLES-PER-SECOND 30
:FRAME-RANGE 1-663
:FULLY-SPECIFIED
:DEGREES
622
root  -32.5197 39.3128 -141.801 -174.658 0.243522 179.479
RightUpLeg  -4.58838 -7.44915 -5.40447
RightLeg  13.5023 -2.14815 0.0648937
RightFoot  -11.647 -0.0657404 4.99583
RightToes  -3.4386e-010 1.2921e-014 -6.02303e-014
Spine  -6.95876 -3.00575 2.75302
Spine1  10.1188 -3.3054 -0.281123
HEad  46.9437 -12.3859 -8.02826
LeftShoulder1  1.2321 -0.85241 -23.6336
LeftArm  -4.87219 11.3785 -47.9659
LeftForeArm  29.7464 2.23012 -11.767
LeftHand  -0.0466881 4.45826 3.16028
RightShoulder  1.58224 1.58423 26.3204
RightArm  -26.473 -2.86924 50.63
RightForeArm  72.0865 -5.19181 3.32877
RightHand  0.155711 -6.66769 -15.7131
LeftUpLeg  -20.9591 6.91012 9.28507
LeftLeg  9.94172 15.0435 3.79762
LeftFoot  -3.91649 0.296018 -4.19939
LeftToes  -7.12384e-010 -7.51861e-011 -8.34901e-011
623
root  -32.9686 39.2159 -142.142 -174.642 -2.46166 179.497
RightUpLeg  -3.58165 -8.56495 -6.14626
RightLeg  13.7888 -3.58573 -0.105106
RightFoot  -12.2842 -0.0357751 5.78544
RightToes  -3.4386e-010 1.2921e-014 -6.02303e-014
Spine  -6.87391 -2.83081 2.54751
Spine1  9.92793 -3.02471 -0.626687
HEad  47.3769 -14.0189 -8.2888
LeftShoulder1  1.17043 -0.644986 -23.6266
LeftArm  -4.95524 12.1186 -47.6341
LeftForeArm  29.0318 2.55985 -11.7466
LeftHand  -0.0446881 4.51282 3.04111
RightShoulder  1.60653 1.63622 26.4805
RightArm  -26.9002 -2.23347 50.6891
RightForeArm  72.2964 -5.12931 3.00463
RightHand  0.157319 -6.66814 -15.8381
LeftUpLeg  -21.3609 6.89529 9.87731
LeftLeg  7.31228 17.3015 4.0657
LeftFoot  -3.04903 0.213301 -2.6898
LeftToes  -7.12384e-010 -7.51861e-011 -8.34901e-011
624
root  -33.474 39.1141 -142.542 -174.683 -5.3078 179.705
RightUpLeg  -2.16531 -9.09962 -6.6095
RightLeg  13.6616 -5.47914 -0.537272
RightFoot  -12.8154 0.00604161 7.22981
RightToes  -3.4386e-010 1.2921e-014 -6.02303e-014
Spine  -6.91214 -2.74208 2.2456
Spine1  10.0325 -2.88729 -0.74661
HEad  47.4374 -15.6319 -8.52679
LeftShoulder1  0.988035 -0.015568 -23.7525
LeftArm  -4.51808 12.4114 -47.2808
LeftForeArm  28.5373 3.03093 -11.9132
LeftHand  -0.0395846 4.6356 2.99876
RightShoulder  1.43421 1.07507 26.6962
RightArm  -26.0214 -0.256079 50.2013
RightForeArm  71.8161 -5.20477 3.34188
RightHand  0.151829 -6.55854 -16.6478
LeftUpLeg  -21.637 7.33964 10.1917
LeftLeg  5.06791 19.7839 4.19407
LeftFoot  -3.13979 0.208021 -2.63841
LeftToes  -7.12384e-010 -7.51861e-011 -8.34901e-011
625
root  -34.0863 38.9743 -142.996 -174.727 -8.2408 179.836
RightUpLeg  -0.544715 -9.68846 -7.29654
RightLeg  13.5443 -7.30381 -0.946575
RightFoot  -13.3663 0.0671107 8.9239
RightToes  -3.4386e-010 1.2921e-014 -6.02303e-014
Spine  -6.89575 -2.53316 2.15773
Spine1  9.54878 -2.58896 -1.04352
HEad  48.1073 -17.23 -8.95627
LeftShoulder1  1.07935 -0.308765 -23.8734
LeftArm  -4.57578 13.468 -46.9846
LeftForeArm  28.315 3.61256 -11.9108
LeftHand  -0.0386092 4.70696 2.64014
RightShoulder  1.47585 1.23436 26.462
RightArm  -25.904 0.0384743 50.1205
RightForeArm  70.7933 -5.25504 3.40093
RightHand  0.163573 -6.58926 -17.279
LeftUpLeg  -21.8211 7.62722 10.0103
LeftLeg  3.22163 23.0495 3.92919
LeftFoot  -2.94433 0.190002 -2.34729
LeftToes  -7.12384e-010 -7.51861e-011 -8.34901e-011
626
root  -34.8114 38.817 -143.488 -174.747 -10.9771 179.915
RightUpLeg  1.18435 -10.5362 -8.24548
RightLeg  13.4321 -8.73469 -1.26561
RightFoot  -13.7433 0.127966 10.5385
RightToes  -3.4386e-010 1.2921e-014 -6.02303e-014
Spine  -7.06281 -2.42102 2.19495
Spine1  9.42213 -2.29321 -1.73627
HEad  48.0109 -18.124 -8.9033
LeftShoulder1  1.09849 -0.378085 -23.8291
LeftArm  -4.60624 14.3876 -46.8633
LeftForeArm  28.2266 4.25789 -11.9374
LeftHand  -0.0390339 4.70544 2.72085
RightShoulder  1.54146 1.47012 26.231
RightArm  -26.1439 0.230676 50.2129
RightForeArm  70.289 -5.24894 3.24587
RightHand  0.212018 -6.9169 -17.2903
LeftUpLeg  -21.774 7.20295 9.39239
LeftLeg  1.9733 26.9935 3.92993
LeftFoot  -2.25161 0.199135 -2.33507
LeftToes  -7.12384e-010 -7.51861e-011 -8.34901e-011
627
root  -35.6461 38.6756 -143.99 -174.524 -13.4503 179.617
RightUpLeg  2.98386 -11.2425 -9.67651
RightLeg  12.9684 -9.7771 -1.60584
RightFoot  -13.7297 0.178464 12.999
RightToes  -3.4386e-010 1.2921e-014 -6.02303e-014
Spine  -7.22812 -2.31736 1.84656
Spine1  9.41239 -1.93743 -2.58223
HEad  46.8496 -17.8762 -8.57731
LeftShoulder1  1.031 -0.150922 -23.8353
LeftArm  -4.65141 15.1057 -46.8122
LeftForeArm  28.7254 4.75365 -11.9514
LeftHand  -0.0388631 4.84272 2.45872
RightShoulder  1.55479 1.55832 25.9087
RightArm  -26.0072 0.0994252 50.2897
RightForeArm  69.4255 -5.30133 3.35876
RightHand  0.242629 -7.13458 -17.1998
LeftUpLeg  -21.8387 6.73282 8.20524
LeftLeg  1.95839 29.477 3.80928
LeftFoot  -0.460218 0.259313 -2.69413
LeftToes  -7.12384e-010 -7.51861e-011 -8.34901e-011
628
root  -36.6054 38.5735 -144.556 -174.25 -15.7405 178.857
RightUpLeg  4.65311 -12.2579 -11.9128
RightLeg  13.3071 -9.76375 -2.03597
RightFoot  -13.213 0.167099 15.661
RightToes  -3.4386e-010 1.2921e-014 -6.02303e-014
Spine  -7.12855 -2.15325 1.02863
Spine1  9.17687 -1.49255 -3.49238
HEad  45.3746 -16.9264 -7.45395
LeftShoulder1  0.964095 0.0997221 -24.0918
LeftArm  -4.34517 15.804 -46.5774
LeftForeArm  28.3715 5.37709 -12.1137
LeftHand  -0.0338405 4.98409 2.6904
RightShoulder  1.52217 1.47619 25.7653
RightArm  -26.5035 -0.594812 50.3907
RightForeArm  68.8581 -5.28394 3.1236
RightHand  0.261768 -7.22689 -17.5202
LeftUpLeg  -21.6753 5.72159 6.44566
LeftLeg  2.49096 31.0755 4.06168
LeftFoot  4.57799 0.631702 -4.71603
LeftToes  -7.12384e-010 -7.51861e-011 -8.34901e-011
629
root  -37.7089 38.4795 -145.143 -174.077 -18.1035 177.93
RightUpLeg  6.19419 -13.5651 -14.7819
RightLeg  14.6619 -8.61958 -2.42969
RightFoot  -12.1808 0.0602665 19.4303
RightToes  -3.4386e-010 1.2921e-014 -6.02303e-014
Spine  -7.03875 -2.21524 -0.120864
Spine1  9.17593 -1.34802 -4.17218
HEad  43.7493 -14.5185 -5.71495
LeftShoulder1  0.88364 0.406995 -24.5232
LeftArm  -4.23793 16.3684 -46.3529
LeftForeArm  27.8084 6.21005 -12.1958
LeftHand  -0.0338661 5.00378 2.85536
RightShoulder  1.43662 1.1954 25.8417
RightArm  -24.8319 0.553841 49.2792
RightForeArm  66.4562 -5.52918 4.051
RightHand  0.25427 -7.15445 -17.7191
LeftUpLeg  -22.1717 4.06289 4.21963
LeftLeg  4.90708 29.5877 5.23594
LeftFoot  7.83593 0.806438 -5.05526
LeftToes  -7.12384e-010 -7.51861e-011 -8.34901e-011
630
root  -38.9223 38.4432 -145.668 -173.296 -20.2639 176.313
RightUpLeg  6.44219 -13.0569 -18.1069
RightLeg  17.7971 -8.37172 -3.19941
RightFoot  -10.2638 -0.309195 25.0036
RightToes  -3.4386e-010 1.2921e-014 -6.02303e-014
Spine  -7.37111 -2.14017 -1.59084
Spine1  9.38267 -1.08105 -4.94265
HEad  41.9168 -11.6032 -3.98312
LeftShoulder1  0.881484 0.425455 -24.6495
LeftArm  -5.79039 16.8341 -46.9253
LeftForeArm  29.0072 7.22488 -11.6446
LeftHand  -0.0286655 5.27135 1.86979
RightShoulder  1.42285 1.169 25.715
RightArm  -25.1279 0.482978 48.9954
RightForeArm  64.5856 -5.56973 3.88132
RightHand  0.255622 -7.20135 -17.3853
LeftUpLeg  -22.6691 2.97144 1.38715
LeftLeg  7.3374 27.2381 5.01551
LeftFoot  7.31573 0.66885 -4.34254
LeftToes  -7.12384e-010 -7.51861e-011 -8.34901e-011
631
root  -40.1698 38.4299 -146.163 -172.595 -22.2204 174.849
RightUpLeg  5.5283 -11.1703 -21.0088
RightLeg  22.9564 -8.80349 -4.27832
RightFoot  -7.24423 -1.1269 29.48
RightToes  -3.4386e-010 1.2921e-014 -6.02303e-014
Spine  -7.43434 -1.74456 -2.37399
Spine1  9.30354 -0.526322 -5.94461
HEad  40.9987 -8.19274 -2.35137
LeftShoulder1  0.928845 0.266256 -24.6032
LeftArm  -6.0173 16.567 -47.4537
LeftForeArm  29.863 7.72002 -11.7317
LeftHand  -0.0277203 5.37644 1.65761
RightShoulder  1.40711 1.12688 25.6571
RightArm  -25.3128 0.0121026 48.7562
RightForeArm  62.6995 -5.62598 3.81419
RightHand  0.323191 -7.52135 -18.3821
LeftUpLeg  -22.2626 2.45991 -1.20199
LeftLeg  8.78137 25.8945 4.14766
LeftFoot  6.41111 0.643899 -4.3724
LeftToes  -7.12384e-010 -7.51861e-011 -8.34901e-011
632
root  -41.4204 38.557 -146.685 -172.519 -23.8074 174.208
RightUpLeg  2.78078 -8.92609 -22.3102
RightLeg  30.913 -10.7171 -7.08029
RightFoot  -1.77321 -2.19174 25.6362
RightToes  -3.4386e-010 1.2921e-014 -6.02303e-014
Spine  -7.76342 -1.46856 -2.6075
Spine1  10.2741 -0.253705 -5.97724
HEad  38.997 -5.72282 -1.92849
LeftShoulder1  0.573017 1.45093 -24.9525
LeftArm  -5.5466 15.0846 -47.881
LeftForeArm  30.743 7.75373 -12.0242
LeftHand  -0.02975 5.52264 1.40965
RightShoulder  1.51661 1.651 24.4722
RightArm  -25.7355 0.155647 49.8781
RightForeArm  61.8792 -5.6137 3.56804
RightHand  0.265886 -7.17983 -18.1749
LeftUpLeg  -20.7439 1.83682 -3.21652
LeftLeg  9.01136 24.4687 3.4114
LeftFoot  5.35809 0.361929 -2.68811
LeftToes  -7.12384e-010 -7.51861e-011 -8.34901e-011
633
root  -42.6359 38.732 -147.167 -172.93 -25.8481 174.316
RightUpLeg  -1.3736 -7.90019 -21.8823
RightLeg  40.5178 -12.9671 -11.8686
RightFoot  5.68834 -1.8727 12.7228
RightToes  -3.4386e-010 1.2921e-014 -6.02303e-014
Spine  -7.34023 -1.16502 -1.60249
Spine1  9.81794 0.0593422 -6.09313
HEad  37.3674 -2.84914 -1.57639
LeftShoulder1  0.668315 1.13823 -24.8884
LeftArm  -5.30039 14.1169 -47.9602
LeftForeArm  31.1059 7.76245 -12.1128
LeftHand  -0.0268078 5.42691 1.45463
RightShoulder  1.5348 1.69337 24.5846
RightArm  -25.2733 0.583511 50.276
RightForeArm  61.3334 -5.67345 3.8133
RightHand  0.252795 -7.07125 -18.4108
LeftUpLeg  -18.6724 0.56488 -4.92137
LeftLeg  8.49862 23.7158 3.45842
LeftFoot  4.2265 0.0707431 -0.70528
LeftToes  -7.12384e-010 -7.51861e-011 -8.34901e-011
634
root  -43.6407 38.7736 -147.64 -173.218 -29.1216 174.263
RightUpLeg  -4.19985 -6.09815 -20.5023
RightLeg  47.6188 -10.8368 -12.7541
RightFoot  5.42859 -1.07093 7.5081
RightToes  -3.4386e-010 1.2921e-014 -6.02303e-014
Spine  -7.10851 -1.59017 -2.38809
Spine1  9.96637 -0.666351 -5.17618
HEad  36.2293 0.699903 -1.39587
LeftShoulder1  0.75989 0.811537 -24.5039
LeftArm  -5.0237 12.717 -48.2119
LeftForeArm  31.1293 7.77289 -12.1822
LeftHand  -0.023913 5.52166 1.92143
RightShoulder  1.51888 1.60134 24.846
RightArm  -24.634 1.26078 51.0084
RightForeArm  60.9539 -5.73984 4.13433
RightHand  0.360125 -7.60435 -19.5221
LeftUpLeg  -17.5156 -0.627746 -6.49735
LeftLeg  9.82332 21.484 4.03515
LeftFoot  2.20286 0.0194039 -0.275796
LeftToes  -7.12384e-010 -7.51861e-011 -8.34901e-011
